# xmcd
# 
# Track frame offsets:
#     150
#     11242
#     25252
#     38470
#     53270
#     65822
#     81685
#     100610
#     116375
#     129452
#     140905
#     152445
#     168245
#     179900
#     199245
#     211807
# 
# Disc length: 3057
# 
# Revision: 5
# Processed by: cddbd v1.5.2PL0 Copyright (c) Steve Scherf et al.
# Submitted via: BonkEnc v1.0.5
# 
DISCID=dc0bef10
DTITLE=Various Artist - Play Me The Blues... Vol. 8
DYEAR=1991
DGENRE=Blues
TTITLE0=Big Joe Williams - Sinking Blues
TTITLE1=Little Walter - Blues With A Feeling
TTITLE2=Sonny Boy Williamson - I Never Do Wrong
TTITLE3=B.B. King - How Blue You Can Get
TTITLE4=John Lee Hooker - Trouble Blues
TTITLE5=Muddy Waters - I Can't Be Satisfied
TTITLE6=The Animals and Sonny Boy Williamson - The Night Time Is The Right Time
TTITLE7=Mike Bloomfield - Don't You Lie To Me
TTITLE8=Leadbelly - Goodnight Irene
TTITLE9=Elmore James - Shake Your Moneymaker
TTITLE10=Sonny Boy Williamson - Bring It On Home
TTITLE11=Lightnin' Hopkins - Coffee For Mama
TTITLE12=Little Walter - As Long As I Have You
TTITLE13=John Mayall - John Lee Boogie
TTITLE14=Howlin' Wolf - Goin' Back Home
TTITLE15=John Lee Hooker - You're Leavin' Me Baby
EXTD=
EXTT0=
EXTT1=
EXTT2=
EXTT3=
EXTT4=
EXTT5=
EXTT6=
EXTT7=
EXTT8=
EXTT9=
EXTT10=
EXTT11=
EXTT12=
EXTT13=
EXTT14=
EXTT15=
PLAYORDER=
